<mxfile host="65bd71144e">
    <diagram id="v4mEQcSP7qCaoaeI43cV" name="Page-1">
        <mxGraphModel dx="609" dy="445" grid="1" gridSize="10" guides="1" tooltips="1" connect="1" arrows="1" fold="1" page="1" pageScale="1" pageWidth="850" pageHeight="1100" math="0" shadow="0">
            <root>
                <mxCell id="0"/>
                <mxCell id="1" parent="0"/>
                <mxCell id="2" value="VPC" style="sketch=0;outlineConnect=0;gradientColor=none;html=1;whiteSpace=wrap;fontSize=12;fontStyle=0;shape=mxgraph.aws4.group;grIcon=mxgraph.aws4.group_vpc;strokeColor=#879196;fillColor=none;verticalAlign=top;align=left;spacingLeft=30;fontColor=#879196;dashed=0;" vertex="1" parent="1">
                    <mxGeometry x="210" y="90" width="440" height="460" as="geometry"/>
                </mxCell>
                <mxCell id="3" value="Public subnet" style="points=[[0,0],[0.25,0],[0.5,0],[0.75,0],[1,0],[1,0.25],[1,0.5],[1,0.75],[1,1],[0.75,1],[0.5,1],[0.25,1],[0,1],[0,0.75],[0,0.5],[0,0.25]];outlineConnect=0;gradientColor=none;html=1;whiteSpace=wrap;fontSize=12;fontStyle=0;container=1;pointerEvents=0;collapsible=0;recursiveResize=0;shape=mxgraph.aws4.group;grIcon=mxgraph.aws4.group_security_group;grStroke=0;strokeColor=#248814;fillColor=#E9F3E6;verticalAlign=top;align=left;spacingLeft=30;fontColor=#248814;dashed=0;" vertex="1" parent="1">
                    <mxGeometry x="360" y="120" width="280" height="160" as="geometry"/>
                </mxCell>
                <mxCell id="6" value="&lt;font color=&quot;#000000&quot;&gt;ALB&lt;/font&gt;" style="outlineConnect=0;dashed=0;verticalLabelPosition=middle;verticalAlign=middle;align=left;html=1;shape=mxgraph.aws3.application_load_balancer;fillColor=#F58536;gradientColor=none;labelPosition=right;" vertex="1" parent="3">
                    <mxGeometry x="110" y="50" width="60" height="60" as="geometry"/>
                </mxCell>
                <mxCell id="21" value="Security group" style="fillColor=none;strokeColor=#DD3522;verticalAlign=top;fontStyle=0;fontColor=#DD3522;" vertex="1" parent="3">
                    <mxGeometry x="50" y="20" width="200" height="132.5" as="geometry"/>
                </mxCell>
                <mxCell id="4" value="Private subnet" style="points=[[0,0],[0.25,0],[0.5,0],[0.75,0],[1,0],[1,0.25],[1,0.5],[1,0.75],[1,1],[0.75,1],[0.5,1],[0.25,1],[0,1],[0,0.75],[0,0.5],[0,0.25]];outlineConnect=0;gradientColor=none;html=1;whiteSpace=wrap;fontSize=12;fontStyle=0;container=1;pointerEvents=0;collapsible=0;recursiveResize=0;shape=mxgraph.aws4.group;grIcon=mxgraph.aws4.group_security_group;grStroke=0;strokeColor=#147EBA;fillColor=#E6F2F8;verticalAlign=top;align=left;spacingLeft=30;fontColor=#147EBA;dashed=0;" vertex="1" parent="1">
                    <mxGeometry x="360" y="320" width="280" height="220" as="geometry"/>
                </mxCell>
                <mxCell id="7" value="Auto Scaling Group" style="sketch=0;outlineConnect=0;gradientColor=none;html=1;whiteSpace=wrap;fontSize=12;fontStyle=0;shape=mxgraph.aws4.groupCenter;grIcon=mxgraph.aws4.group_auto_scaling_group;grStroke=0;strokeColor=#879196;fillColor=#ECEFEF;verticalAlign=top;align=center;fontColor=#879196;dashed=0;spacingTop=25;" vertex="1" parent="4">
                    <mxGeometry x="5" y="30" width="265" height="160" as="geometry"/>
                </mxCell>
                <mxCell id="9" value="Amazon EC2" style="sketch=0;outlineConnect=0;fontColor=#232F3E;gradientColor=none;strokeColor=#ffffff;fillColor=#232F3E;dashed=0;verticalLabelPosition=middle;verticalAlign=bottom;align=center;html=1;whiteSpace=wrap;fontSize=10;fontStyle=1;spacing=3;shape=mxgraph.aws4.productIcon;prIcon=mxgraph.aws4.ec2;" vertex="1" parent="4">
                    <mxGeometry x="10" y="80" width="70" height="90" as="geometry"/>
                </mxCell>
                <mxCell id="10" value="Amazon EC2" style="sketch=0;outlineConnect=0;fontColor=#232F3E;gradientColor=none;strokeColor=#ffffff;fillColor=#232F3E;dashed=0;verticalLabelPosition=middle;verticalAlign=bottom;align=center;html=1;whiteSpace=wrap;fontSize=10;fontStyle=1;spacing=3;shape=mxgraph.aws4.productIcon;prIcon=mxgraph.aws4.ec2;" vertex="1" parent="4">
                    <mxGeometry x="90" y="80" width="70" height="90" as="geometry"/>
                </mxCell>
                <mxCell id="11" value="Amazon EC2" style="sketch=0;outlineConnect=0;fontColor=#232F3E;gradientColor=none;strokeColor=#ffffff;fillColor=#232F3E;dashed=0;verticalLabelPosition=middle;verticalAlign=bottom;align=center;html=1;whiteSpace=wrap;fontSize=10;fontStyle=1;spacing=3;shape=mxgraph.aws4.productIcon;prIcon=mxgraph.aws4.ec2;" vertex="1" parent="4">
                    <mxGeometry x="170" y="80" width="70" height="90" as="geometry"/>
                </mxCell>
                <mxCell id="22" value="Security group" style="fillColor=none;strokeColor=#DD3522;verticalAlign=top;fontStyle=0;fontColor=#DD3522;labelPosition=center;verticalLabelPosition=bottom;align=center;" vertex="1" parent="4">
                    <mxGeometry x="5" y="50" width="255" height="140" as="geometry"/>
                </mxCell>
                <mxCell id="5" value="Amazon S3" style="sketch=0;outlineConnect=0;fontColor=#232F3E;gradientColor=none;strokeColor=#ffffff;fillColor=#232F3E;dashed=0;verticalLabelPosition=middle;verticalAlign=bottom;align=center;html=1;whiteSpace=wrap;fontSize=10;fontStyle=1;spacing=3;shape=mxgraph.aws4.productIcon;prIcon=mxgraph.aws4.s3;" vertex="1" parent="1">
                    <mxGeometry x="220" y="130" width="80" height="110" as="geometry"/>
                </mxCell>
                <mxCell id="12" style="edgeStyle=none;html=1;fontColor=#000000;strokeColor=#FF3399;" edge="1" parent="1" source="6" target="7">
                    <mxGeometry relative="1" as="geometry"/>
                </mxCell>
                <mxCell id="15" style="edgeStyle=none;html=1;exitX=1;exitY=0.25;exitDx=0;exitDy=0;entryX=0;entryY=0.5;entryDx=0;entryDy=0;entryPerimeter=0;strokeColor=#FF3399;fontColor=#000000;" edge="1" parent="1" source="14" target="6">
                    <mxGeometry relative="1" as="geometry">
                        <Array as="points">
                            <mxPoint x="340" y="318"/>
                            <mxPoint x="340" y="200"/>
                        </Array>
                    </mxGeometry>
                </mxCell>
                <mxCell id="16" style="edgeStyle=none;html=1;exitX=1;exitY=0.75;exitDx=0;exitDy=0;strokeColor=#FF3399;fontColor=#000000;" edge="1" parent="1" source="14" target="9">
                    <mxGeometry relative="1" as="geometry">
                        <Array as="points">
                            <mxPoint x="240" y="353"/>
                            <mxPoint x="240" y="445"/>
                        </Array>
                    </mxGeometry>
                </mxCell>
                <mxCell id="17" style="edgeStyle=none;html=1;strokeColor=#FFFFFF;fontColor=#FFFFFF;labelBackgroundColor=#FFFFFF;" edge="1" parent="1" source="14" target="5">
                    <mxGeometry relative="1" as="geometry">
                        <Array as="points">
                            <mxPoint x="100" y="185"/>
                        </Array>
                    </mxGeometry>
                </mxCell>
                <mxCell id="14" value="" style="shape=image;verticalLabelPosition=bottom;labelBackgroundColor=default;verticalAlign=top;aspect=fixed;imageAspect=0;image=data:image/png,iVBORw0KGgoAAAANSUhEUgAABKMAAAM9CAYAAABAMbCsAAAACXBIWXMAAAsTAAALEwEAmpwYAAAAeGVYSWZNTQAqAAAACAAFARIAAwAAAAEAAQAAARoABQAAAAEAAABKARsABQAAAAEAAABSASgAAwAAAAEAAgAAh2kABAAAAAEAAABaAAAAAAAAAEgAAAABAAAASAAAAAEAAqACAAQAAAABAAAEo6ADAAQAAAABAAADPQAAAADsLuG1AAAgAElEQVR4nOzdebRud0Hf/89+hjOPd76ZEzISMkGAmAQBAQURBdGfpSiiteivWm2p1RaqdVhaRX6iqFVw1jiCBbFArRSJVghhiIQpCWQkyU3ueO4983meZ+/fH4ksHJAM9+x9htdrLfgna2V/VlayznPf5/vdT5EkZ1141VmtVvm+AAAAAMBJV51ZFLn+9k9+6FmdJOl0+meVZXFm07MAAAAA2NpaTQ8AAAAAYPsQowAAAACojRgFAAAAQG3EKAAAAABqI0YBAAAAUBsxCgAAAIDaiFEAAAAA1EaMAgAAAKA2YhQAAAAAtRGjAAAAAKiNGAUAAABAbcQoAAAAAGojRgEAAABQGzEKAAAAgNqIUQAAAADURowCAAAAoDZiFAAAAAC1EaMAAAAAqI0YBQAAAEBtxCgAAAAAaiNGAQAAAFAbMQoAAACA2ohRAAAAANRGjAIAAACgNmIUAAAAALURowAAAACojRgFAAAAQG3EKAAAAABqI0YBAAAAUBsxCgAAAIDaiFEAAAAA1EaMAgAAAKA2YhQAAAAAtRGjAAAAAKiNGAUAAABAbcQoAAAAAGojRgEAAABQGzEKAAAAgNqIUQAAAADURowCAAAAoDZiFAAAAAC1EaMAAAAAqI0YBQAAAEBtxCgAAAAAaiNGAQAAAFAbMQoAAACA2ohRAAAAANRGjAIAAACgNmIUAAAAALURowAAAACojRgFAAAAQG3EKAAAAABqI0YBAAAAUBsxCgAAAIDaiFEAAAAA1EaMAgAAAKA2YhQAAAAAtRGjAAAAAKiNGAUAAABAbcQoAAAAAGojRgEAAABQGzEKAAAAgNqIUQAAAADURowCAAAAoDZiFAAAAAC1EaMAAAAAqI0YBQAAAEBtxCgAAAAAaiNGAQAAAFAbMQoAAACA2ohRAAAAANRGjAIAAACgNmIUAAAAALURowAAAACojRgFAAAAQG3EKAAAAABqI0YBAAAAUBsxCgAAAIDaiFEAAAAA1EaMAgAAAKA2YhQAAAAAtRGjAAAAAKiNGAUAAABAbcQoAAAAAGojRgEAAABQGzEKAAAAgNqIUQAAAADURowCAAAAoDZiFAAAAAC1EaMAAAAAqI0YBQAAAEBtxCgAAAAAaiNGAQAAAFAbMQoAAACA2ohRAAAAANRGjAIAAACgNmIUAAAAALURowAAAACojRgFAAAAQG3EKAAAAABqI0YBAAAAUBsxCgAAAIDaiFEAAAAA1EaMAgAAAKA2YhQAAAAAtRGjAAAAAKiNGAUAAABAbcQoAAAAAGojRgEAAABQGzEKAAAAgNqIUQAAAADURowCAAAAoDZiFAAAAAC1EaMAAAAAqI0YBQAAAEBtxCgAAAAAaiNGAQAAAFAbMQoAAACA2ohRAAAAANRGjAIAAACgNmIUAAAAALURowAAAACojRgFAAAAQG3EKAAAAABqI0YBAAAAUBsxCgAAAIDaiFEAAAAA1EaMAgAAAKA2YhQAAAAAtRGjAAAAAKiNGAUAAABAbcQoAAAAAGojRgEAAABQGzEKAAAAgNqIUQAAAADURowCAAAAoDZiFAAAAAC1EaMAAAAAqI0YBQAAAEBtxCgAAAAAaiNGAQAAAFAbMQoAAACA2ohRAAAAANRGjAIAAACgNmIUAAAAALURowAAAACojRgFAAAAQG3EKAAAAABqI0YBAAAAUBsxCgAAAIDaiFEAAAAA1EaMAgAAAKA2YhQAAAAAtRGjAAAAAKiNGAUAAABAbcQoAAAAAGojRgEAAABQGzEKAAAAgNqIUQAAAADURowCAAAAoDZiFAAAAAC1EaMAAAAAqI0YBQAAAEBtxCgAAAAAaiNGAQAAAFAbMQoAAACA2ohRAAAAANRGjAIAAACgNmIUAAAAALURowAAAACojRgFAAAAQG3EKAAAAABqI0YBAAAAUBsxCgAAAIDaiFEAAAAA1EaMAgAAAKA2YhQAAAAAtRGjAAAAAKiNGAUAAABAbcQoAAAAAGojRgEAAABQGzEKAAAAgNqIUQAAAADURowCAAAAoDZiFAAAAAC1EaMAAAAAqI0YBQAAAEBtxCgAAAAAaiNGAQAAAFAbMQoAAACA2ohRAAAAANRGjAIAAACgNmIUAI/KjuErMzl0YdMzAACATUqMAuBRmRm6LJfu+ImcNfmtTU8BAAA2ITEKgEelSpVOezJnTX1zrtn/9uwauTZFOk3PAgAANgkxCoDHZFCupp1unrjjtbl4xw9nx8jTmp4EAABsAn6VDcBjVqVKqkF2jFyZ6aFLcmzto7n12M9mUC02PQ0AANignIwC4HGrqjKtopvdI9fk2lP+R86c/Ja0i5GmZwEAABuQk1EAnDRl1U+qIudMvTI7hq/MweX35v7Fd6ZKv+lpAADABiFGAXCSVemXy5nonpuJ7hOyd+x5ueXY67PUv6vpYQAAwAbgmh4A66RKkkx0z8nT9/16Lpr9zxlq72x4EwAA0DQnowBYV1VVpj9Yzt6x52Sie14Or/xN7lt4W9bKo01PAwAAGuBkFAC1GJQrGWnvyWnjX58rdr8xO0euanoSAADQADEKgJpVGWrN5tJdP5kn7/7FTHbPb3oQAABQIzEKgAZU6Q+WMtk9L0/a8eO5cOYHRCkAANgmxCgAGlNWvXRa49k9+uW5ZOdP5rTxlzY9CQAAWGdiFAAbQrsYyXmz350v2/dH2T36zBS+YwMAALYkMQqADaM/WEq3NZkLZl6dS3b+eHaNXNv0JAAA4CTza2cANpSqKlOknemhSzI19MQcXH5aPnv8F1JWvaanAQAAJ4GTUQBsWEXaOWX8Bbl2/5/mjImXpV2MNj0JAAB4nMQoADa0Qbmaqqpy1tQrctmu1+fU8Zc0PQkAAHgcxCgANoEqVTXIeOfMnDP1Hbl81xsy0t7X9CgAAOAxEKMA2GSqTA9dlKv2X5fzZ/59htu7mh4EAAA8Cl5gDsCmU1b9ZNDPKeMvyMzQpTm88oHcPX9dBtVS09MAAIAvwckoADatQbmW4fbunDbx4ly5502ZGbqs6UkAAMCXIEYBsOlVVZnh1s5csecNuXTn6zLRPbfpSQAAwBchRgGwJVQp0x8sZXb4sjxpx4/nibOvzVjn9KZnAQAA/4AYBcCWUla9dFuT2Tlyda7Y9fPZN/b8picBAABfQIwCYIuq0iqGc9GOH8zT9vxWdo5cnaRoehQAAGx7vk0PgC2sSn+wmJHO3lw48/1Z7N+Ve+b/MEdXb2x6GAAAbFtORgGw5VXVIK1iKJPd83Pxjh/K2VPfkaLoxEkpAAConxgFwDZT5Kypl+XqfW/N6RPfmHYx2vQgAADYVsQoALad/mA5rXRz1uQr8uTdv5BTxr+u6UkAALBtiFEAbFNVkmSkvS/nTn9nLt35Uxlu707hRyMAAKwrn7gB2PaqqszsyJNz1b7rcu7092SkvafpSQAAsGX5Nj0ASFKWa0mS/eMvyM6Rp+fg8vW588RvpEq/4WUAALC1OBkFAF+gqgbptqZz+sTX58o9b87M0GUPf/MeAABwMohRAPBPKKt+Rjv7c/me/y8Xz/5IpoYubHoSAABsCX7VCwBfRFUNMhgMsmPkKZkauiBzqzfns8d/KWvl0aanAQDApuVkFAB8CVU1SLsYza7Rq3Plnjdn/9gLXd0DAIDHSIwCgEeoqgbpFKO5cMer8+Rdv5RdI89oehIAAGw6YhQAPApVqvQHyxnvnp4LZl6dJ+96Y6aGLm56FgAAbBpiFAA8BlVVplV0M959Qi7b+VM5e+o70i5GkhRNTwMAgA1NjAKAx6VK0sqZk/8iT9v72zlt4qUp0m56FAAAbFhiFAA8blUG5Uo6xUTOmnxFnrb3t7Jv7KuaHgUAABuSGAUAJ02VIq0MtWZz/sy/yxNnfzjD7d0p4pv3AADg7/h0DADroKoG2TP2jOwceVoOLP2v3DP/+1krjzY9CwAAGudkFACsk0G5miTZP/b8XLnnzTl76ttTeME5AADbnBgFADVoFyM5Y/KbcsXuX8rU0BPTKkaangQAAI0QowCgJmXZy2T3nFyx++fyxNnXZLJ7XtOTAACgdt4ZBQA1Kqt+UiWzw0/J9NAlObr6oXxm7ufTrxabngYAALVwMgoAGlGlVXSzZ+xZeereX8/e0eem0xpvehQAAKw7MQoAGlSWa+m2pnLRjh/MpTtfl10j1zY9CQAA1pUYBQANq6oyg3I1452zcuHs9+eKXW/MWOfMpmcBAMC6EKMAYMOoUqSTyaHz8uTdv5CzJr81Q62ZpkcBAMBJJUYBwAZTVYMUaeesqW/OFbt/MadNvLTpSQAAcNKIUQCwIVUZlKsZas3krMlvzVV7fy+7Rq5pehQAADxuYhQAbHBFWum2ZvLEHf8lF8/+14x09qfwIxwAgE2q0/QAAOCRqFJVg+wauyYzw5fn0PL1uf3EmzOolpoeBgAAj4pfqwLAJlKWa2kV3ewde26u3veHOWPiZSlSND0LAAAeMTEKADatVs6efmUu3/XGTA1dnHYx0vQgAAD4ksQoANjEyrKXqaHzctmu1+Wi2ddmvHN205MAAOCfJUYBwCZXVv2kqjI7fEWesue/54KZ/+CUFAAAG5YYBQBbSFUNsn/8+blyz69m79jz0m1NNz0JAAD+Ht+mBwBbzKBczXB7Zy6c+Q+Z7302n5t/Sw6tXN/0LAAASOJkFABsSVVVpqz6Ge+clYt2/GAu2/X6jLT3ND0LAADEKADY6qqqzMzwJXnKnjfl7Mlvy7AoBQBAg8QoANgGyrKXVoZyxuQ35fJdr8+ZEy9vehIAANuUGAUA20aVsupnqLUjZ0y+LE/f+zuZGbq06VEAAGwzYhQAbFPD7d25ZNd/y0Wzr81496ym5wAAsE34Nj0A2KaqapAk2TP6jMwOX5HDK+/PZ+bekCpVw8sAANjKnIwCgG2urPppFyPZO/oVuXb/O3LK2NekSLvpWQAAbFFiFADwBYpcuPM/Zqx7RtNDAADYosQoAOAfqFL4iAAAwDrxSRMA+Puqz/8fAACcdGIUAAAAALURowAAAACojRgFAAAAQG3EKAAAAABqI0YBAAAAUBsxCgA4KUbae3PK+IvSKrpNTwFqVaTdGs/U2NUp/PcPwCPQaXoAALA1tFtjeeLO/5yZocvzwPKf59jKh1OlbHoWsI467elMjD45E6NXptc/mPnlDzU9CYBNQIwCAE6OqkpZ9bJr9OrsGLkyR1Y+mM/M/Xz61WLTy4B1MDn61EyNX5NOezpJslb1G14EwGYhRgEAJ1GVqhqkSDu7R6/N/vHn5c4Tv5vPzf+RKAVbQitD3f3ZPf2N6XZmU5b9VFWZpGh6GACbiBgFAKyLqirTGyzmjMl/kZmhy3Jg6V05vPI36ZcLTU8DHoPh7umZGL0i4yOXpCg6KUsnoQB4bMQoAGBdleVaJofOy0T3e7J/7IW5be5ns9i/q+lZwCNWZHbiKzM+elnardFUVfnwaSgAeGzEKABg3f3dNZ6J7hNy1f7fzYHF/53bj/9KVgeHmp4GfBFFWhkbeVJ2Tn1diqKTquqLUACcFGIUAFCjKmv949k9+oxMds/PgaV35+DSe7MyeKDpYcAXGBu5OBMjV2R0+NyHT0K5kgfAySNGAQC1K8u1DLV25MyJl+eUsRfms8d/JYdX/rrpWbDttVuT2TH1NRkZOjutopuqGjQ9CYAtSIwCABpSJUm6relcuuvHMrf6qdw294Ys9G7//F8D6lEUnUyPPyOzk89JWfa8FwqAdSVGAQCN6w0WM9k9N5ft+pkcXPo/eWDpLzLfu7XpWbAtTI1dlfGRyzM8dGoGg9Wm5wCwDYhRAMCGUFa9tNLNvrEXZM/oc/K5hT/OPQt/0PQs2LKGu2dkx+RXp9vZnaRIWa41PQmAbUKMAgA2mCqtoptzpr8tp068OJ+Ze2OOrt6Ysuo1PQy2gCLt1mhmJ1+YybHLHz4JVcXVWADqJEYBABvSoFxLtzWVJ+54bQ4v35AHl/8iR1Y+0PQs2LRarbFMj12TsZFL0u3MZjBYaXoSANuUGAUAbFh/901eO0eenp0jT83B5fflM3O/kDKuE8GjMTF6eabHn5N2azxJ5UoeAI0SowCATaBKUmTf2POyf/z5uf34r+XA0rvSL+ebHgYbVpFWup3d2Tn1kgwPnfpwgHIdD4DmiVEAwKZRVv2kGuScqW/PzpGn5+DyX+aBpT9PWTnlAV9oqLs/U6NXZXT4grRao05CAbChiFEAwCZTpax6mexekMnuedk9+szceux1WRkcbHoYbAgzE8/O5OjTUxRDSapUVb/pSQDw94hRAMAm9dDVvemhi3PtqW/L5068LXfPX5eVwQNND4PaFUU3o0PnZufU16XdHnclD4ANTYwCADa1qhpktXcs+8aem+mhS3Jo5X25b/HPsjY43PQ0qMXYyMWZGHlyRobOSlK4kgfAhidGAQBbQln1M9zemdPGX5q9o8/NbXM/l6OrH2p6FqybVjGcHVMvyujwBSnSzkMnoZyGAmDjE6MAgC2n25rJk/e+IYeWbsgdx9+U+d5n4w/pbBWtYiQTY1dmx+RXparKh98J5d9vADYPMQoA2IKqrPbmMjP0pFyy8ydzZOXG3Lf4tiz0Ptv0MHhcpsavyfjwJRnq7nMdD4BNS4wCALassuqnXYxmz+gzs3v02tw9//v53MIfNT0LHrVuZ092Tb043c6eJEWqatD0JAB4zMQoAGBbKNLOuTPfmf1jX53bj/9yjq3dlLJabXoW/LParcnMTDw7U+NflrJcSVWVTU8CgMdNjAIAto3+YCkjnT25aMdrcnztE7lv8U9zdOWDTc+Cf6Qo2pmd+MqMDl+QbmdHBoOlpicBwEkjRgEA20pVDVKklZmhSzM7fEUOLv1lbpv72ZTpNz0NkiRjwxdlx+QL02qNJknKstfwIgA4ucQoAGDbqqpB9o4/N7tGr82dJ34jB5f/Mr3yeNOz2JaKDHX2ZXbyqzI2cn4Gg5X4hjwAtioxCgDY1spyLa2084TpV2Xv6HPzwPJf5P7FP216FttIpz2bmYnnZnTovLRawxkMlpueBADrSowCALa9KlVSVRnvnpVzh74re0afmU8d/bGslXNNT2OLmxq/Jjsmn5+yXEuSVJXrogBsfWIUAMAXqKpBpoaemGtPfXvuOfGW3Lf49iz372t6FltIUXQyOnRuZidfkG5nZ8rStzoCsL2IUQAA/0BV9dPrL+SU8a/JjuGn5vDK+3PPwu+nXy40PY1NbnT4vEyNXZPh7ukpipYQBcC2JEYBAHwRVTXIcHtXTh3/2uwauSafPvaTme/d2vQsNqGi6GbH5Fdncuwpn/92vKoqG14FAM0QowAAHoGRzu48ff9v5oGF9+ae+etyondL05PYBFqtsUyMXJaZieem1ep+PkQBwHYmRgEAPAJVVWa1dzQ7Rp6SyaHzMrf6sdw9f12W+vc0PY0NamrsmoyPXpahzu5UVSVEAcDDxCgAgEehqgbpFOPZNXJ1dg4/LZ898St5cOkvUmXQ9DQ2iE57NrumvyFDnf1JKtfxAOAfEKMAAB6joujm4p2vzanjL8ld87+Voys3ilLbWKc9m6mxqzM9cU3Kci1V5d8FAPiniFEAAI9ZlbX+8Yx3z8iFMz+Yhd5ncvfCH2Ru9aNND6NmOyZfmNHhC9JpT2UwWG56DgBsaGIUAMDjVFWDtIpOpoYuyuW7fir3Lrw9d574jQyq1SRV0/NYN62MDJ2Z3dPflKIYykNX8pyGAoAvRYwCADiJBuVaTp94aXaPPit3z/9uDi5fn355oulZnGTD3dMyPf7lmRi7JP3+ckRHAHjkxCgAgJOsXy6nW0zkCVOvyv6xF+b+xXfkwNK7mp7FSdAqRrJz+iUZ6Z6ZVmsk/f5S05MAYNMRowAA1kGVMkmRsc5puWD21dk1em1uPfa6rJXH4xTN5lMUnUyMXJ5dMy/JYPDQ9UtX8gDgsRGjAADW2aBcyY7hp+SqfX+Yexf+JAeW3pXl/n1Nz+IRKNLK6PAFmZ54dkaGTs1gsNL0JADY9MQoAIAalFUvSZFTx1+c3SPPyKGVv86d87+Zquo3PY0vYrh7WmYnn5+hzt4URUeIAoCTRIwCAKjNQ9fzhto7cvrEN2THyNPy6aM/kaX+51LFla+NolWMZHrimZmdfHb6/cUkSVWVDa8CgK1DjAIAaEBZ9TLWOS1X7f+dHFh4T+5dfGtOrH2q6VnbWqsYycToFZke//K02xOfD1EAwMklRgEANKSqBlnrn8iukadnZvhJOb72iXz2+C9ndXCo6WnbzuTolZkc+7J02jNJipTlWtOTAGDLEqMAABpWpUq7GMvO4asyvfvS3Db3hhxd/XDKarXpaVtckU57OjsmX5ixkYtSln/3z9u3HQLAehKjAAA2iCplOsVoLtv90zm6fFPuXXhLDq38VdOztqROezZTY1dlcuyqFEW+IEQBAOtNjAIA2ECqVFnrz2Wye04umHl1Tuu/NLefeJP3SZ1EOya/OmPDT0yrNZaq6qdyEAoAatVqegAAAP9YlSpF0clE99xcsesNOXvyX6Xbmmx61qZVFJ0Md0/Pqbv+XSbHnpZWazSu4wFAM5yMAgDY0KqUVS9nTX9z9ow9K/cu/EkeXH5P+uVC08M2jeHu6ZkavyYTo5ekLNdSVYOmJwHAtiZGAQBsAv3BYoZaO3L21Lfn1PGvzV3z1+Xg8nubnrWhFWln98w3Zbh7Zoqim8FgpelJAEDEKACATaRKkVaG23ty8c7/kr1Lz81tx9+QtcGRVCmbHrdhtIqRjA5fkF3TL0lSparKuJIHABuHGAUAsAn1B0vZMfqUXDn8qzmw+D/zwNL/zlL/nqZnNW5s5EmZGrs6o8NnOgkFABuUGAUAsEmVZS+tdHPq+Iuzd/Q5ObD0v3LX/G83PasRnfZsdk//P+l0dqVIW4gCgA1MjAIA2NQeun7WaU3m7OlXZPfoM/Opoz+e5cG9Katew9vWX7s1kcmxp2bn9AvS6y3koX8eruQBwEYmRgEAbBH9wXJGO/vz1L1vzoNLf5kDi+/M3NrHmp61Loqik6mxazIx+uR0OzvS6803PQkAeITEKACALaSqBhlUg+wauTo7hq/MsdWP5rbjP5d+udD0tJNmbPjCzE4+P+3WZJIiZbnW9CQA4FEQowAAtqhWMZTdo8/IzPAVueXYT+dE75Ppl4tNz3qMinTas9kx+VWZGLs8/f7fxTVX8gBgsxGjAAC2sLLqpVOM5PI9r8vR5Y/m/sV35ODy+5qe9ai0W1OZnnhmxkcuTasY+oIQBQBsRmIUAI9KK920i27KuBYDm0WVKr3+Qia75+f8mVfntImX5ta5N2Sxd0fT076kmYnnZHL0qSmKbpKkqvoNLwIAHq9W0wMA2Fxun39TPnHkR7PSfyBF0U6RoulJwKNQpJWJzhPylN2/lNPHvzFD7Z1NT/pHiqKT4e4ZOWXnd2dm4tmfD1EAwNbgZBQAj9rB5fdlbu3j2TPyrJwy/qKMdU/LoFxpehbwCFUpk6rIebP/JvvWXpADi+/MfYtvT5VB09My3D0tU+PPyPjIRamqMmW52vQkAOAkczIKgMdkbXAk9y7+SW46/H05tPTXaRXdxCkp2ESq9AaLGWnvydlTr8zT9v5mdo58WYN7iuye+RfZO/vKjA6dm7Lspaqaj2MAwMnnZBQAj0uvPJ5PHvvRTC1cmHOmvjOTQ+emKNqpqrLpacAjVmSotTOX7vqJHFj437ln4fey1L83dXxTXas1mtGh87Nj8oVptYYEKADYBsQoAE6KE71b8vGjr8nOkafn1PEXZ3b0ivT6803PAh6xKv3BUvaNPyc7Rp6SB5b+Ivctvj2rg4Pr9sTxkcsyOfbUjAyd6SQUAGwjYhQAJ82gWs7B5ffl0PJf54zJl+WMiZc9/FfW/3QFcHIMytW0i9GcOv6i7Bt7Xu5Z+KPcu/DWk/qMVmsse2e+Jd3OniRJWfp2TgDYTrwzCoCTrsogd89flxsPviJHVm5IWa2mVfj9B2wuRdrFaM6f+Z48edcvZap74cPvhnvsOu3pzEx8Rc7a90MZ6u47STsBgM3GnwwAWDergyP59LGfyPTQk3LK+Ndm3/hz0xssxkkp2Dx6g4VMDJ2Ty3b9TA6vfCD3Lb49J9Y+9aj/PjMTX5Gx4SdlqLsr/f7SOiwFADYLMQqAdVWlzNzazZlbuzmHVv4q50+/Ou3WkBecwyby0LuciuwZe1ZW+g8+6hjV7ezJ5OjTUxSdlGVvfUYCAJuGa3oA1ObQ8l/l/Q98fe6d/x/plXNpt4aTFE3PAh6Fwn+zAMDjJEYBUKsqZe6Y/7V8/Mh/yT3zf5yiKFIUfhwBAMB24dM/AI1Y7N+VO078am469O+z2j+aomg3PQkAAKiBGAVAo+Z7t+aDB785n5l7Y5b796XdGnENCAAAtjAvMAdgQziw9O4cXf1Qdo5cnTMnXpah9o6UlRcdAwDAVuNkFAAbxurgcO5ffEc+fOhVmVu92QkpAADYgsQoADacXjmfjx35j7n5yGtzYu2TaRUd75QCAIAtwjU9ADasubW/zfzRWzM7fEXOmHx5ZoYvTm+w0PQsAADgcXAyCoANbVAt5/DK+3PToe/N3Sd+P1U1aHoSAADwOIhRAGwKVQa5/cSb89HD/yaHl9+fslpLq+g2PQsAAHiUxCgANpWl/n25Ze51+fiR1+TIyg0Z6sw0PQkAAHgUxCgANp0q/Zzo3ZJPHP2v+fjh12ZQrSapmp4FAAA8AmIUAJvaweXrc+OD35L7F/8sa+XRtFujTU8CAAD+GWIUAJtev1rK7Sd+NTcf+U+5d+Gt6bTHkxRNzwIAAP4JYhQAW0SV5f79+ezxX86HHvyO9AZzcXUPAAA2HjEKgC1noXd7bjj48txx4tey1L8r3c5EnJQCAICNodP0AABYL/ct/mkOLr8ve0afmbMnvz2t1lCqqmx6FnDrWW0AACAASURBVAAAbGtORgGwpfXK47lv8R258eArs7B2R6oMmp4EAADbmhgFwLawVs7lo4e/J58++hM5vnZzuu2JFEW76VkAALDtuKYHwLZyZPXGzK3dnOmhS/OE6e/KePe0DMq1pmcBAMC24WQUANvOoFrJ0dUb8+FDr8oDi+9JWa02PQkAALYNJ6MA2Laqqp9b5l6Xie7ZOW38G7Nn7Fkp0kpZ9ZueBgAAW5aTUQBsewu9O3Pr8Z/NRw/92xxb/dt0O5NNTwIAgC1LjAKAPHRKaqF3e24+8p9y69E3pFeeePivFI3uAgCArUaMAoB/4L7Ft+ejh7479y38afrVfNqt4aYnAQDAliFGAcA/Ya08ljvnfz03Hfre3L/4rgx1ppqeBAAAW4IYBQBfRJUyK4ODuW3uDfnIg9+T1cGhVClTuLoHAACPmRgFAI/A3NrN+dChf507T/xGFvt3e8k5AAA8RmIUADxCVdXPfYtvz8eO/GBuO/YLaRWdeME5AAA8OmIUADxK/XI+9y68NR988BVZ7N2esuql8CMVAAAeEZ+cAeAxWhkczEcPf29unfuZHFu7KcPd2RSFH60AAPDP6TQ9AAA2u8Mr78/R1Q/n/oU/y3kz35eh9nSqqmx6FgAAbEh+fQsAJ0FZreXI6g350MFX5sjyB9OvFl3dAwCAf4KTUQBwEg2q1Xzy2I9msnt+Thl/UU6d/NoMBsspq37T0wAAYEPwK1sAWAfzvdty29wb8sEDr8yJtVvTbg03PQkAADYEMQoA1kmVMov9O3PT4e/LXSeuy9rgSJLi4f8BAMD2JEYBQA3umv/t/O2R78+9C29NlX5araGmJwEAQCPEKACoyergUO6c/63c+OC35eDS+9Jpjzc9CQAAaidGAUCtqqyVR/PpYz+ZTxz+oSz1701SpSj8SAYAYHvwbXoA0JBDK/83R1c/kr2jz8tpEy/O+NBZ6Q+Wmp4FAADryq9hAaBBg2o59y/9WT5y6Ltz5/HfTrs10vQkAABYV2IUADSuyqBazl3zv50PPfivcmLtlpRVL0XRbnoYAACcdGIUAGwgi/2787Ej359b534mc6sfy3B3NknR9CwAADhpvDMKADagwyvvz5GVG7N76Rk5b/rfplUMNT0JAABOCiejAGCDqtLPweW/zI0HvzVHVj6YfrmQovB7JAAANjcxCgA2uF45n08d+/F88uiP5ODSezLS3el9UgAAbFpiFABsEid6t+SWudfnAwdekaX+vfEuKQAANiMxCgA2mYXeZ/KRg6/KfYtvz8rgwbRc3QMAYBMRowBgE6pS5Y4Tv5qPH3lN7pq/Lp32WFpFt+lZAADwJYlRALCJrQwezN3z1+Vv7n9pjqzcKEgBALDhiVEAsAWslcfyiaM/lFuO/UwWenekKNopCj/mAQDYeLxkAgC2kAeX35Mjqx/MzuGn5wnTr8pQezaDcrXpWQAA8Hl+ZQoAW0y/nM+Dy+/JDQ9+c+5deJurewAAbChiFABsUWW1ls8e/+/5yMF/k7nVj6VK6Zv3AABonBgFAFvcQv/2fPLYj+QTR344871b0+1MNj0JAIBtTIwCgG2grHqZW/vbfPTQv8stR1+fKoOmJwEAsE2JUQCwrVS5f/HPcsMD/zKHlv8qg3IprZZ3SgEAUB8xCgC2oX61mFvmXpePHfmBHFx6b0a6O5MUTc8CAGAbEKMAYBtb7N+VTx/76Xzoge/K6uBQ03MAANgGxCgAIHNrH8uNB1+Z+xbeluXegTglBQDAevH9zgDA590x/+s5sPTurJXHmp4CAMAWJUYBAH/P8uD+picAALCFuaYHAAAAQG3EKAAAAABqI0YBAAAAUBsxCgAAAIDaiFEAAAAA1EaMAgBOoqLpAQAAbHBiFABwUgyq5Syv3Z9W0W16ClCjomil1eqm1z+cVGXTcwDYBMQoAOCkWBkczE2Hvy8Hl9+X4e5sCh8zYMtrtYbSH8zlwWPXZW7xPakyaHoSAJuAT4kAwElSZWVwMJ8+9t/yN/d/U+Z7tyapUri6B1tQkbJaydzC9bnv8M9nefXWVJUQBcAj02l6AACw9Sz3783Hj7w2u0eflX1jz8vU0MUpq7WmZwGPU1G0U1X9zC9/OIvLN2Wt/0DTkwDYhMQoAGBd9KulHFh6Vw6t/FVOHX9Jzpn+tgzKVacnYJNqt0eyvHJHji68O2u9A0mqpicBsEmJUQDAuuqXC7l7/ndz78Jbct7M92bXyLVpFZ1UXnQMm0CRpMqgnM+RE2/P4srHmx4EwBYgRgEAtRhUK7nl2Ouyc/ivsm/sedk1ek2qlKIUbFCt1nD6/WM5sfSBLK58PINyvulJAGwRYhQAUKsjqzfk2NpHsnP56pw/833ptMZSVv2mZwFfoNUazsLSRzK3+N70B8ebngPAFiNGAQC1K6teDq1cn0MPXJ8zJ785p41/fdqtEaekoFFFkjK9/pEcPv7H6Q2OND0IgC1KjAIAGnX3/HU5uvKh7B17TvaNviDtVtdJKahVkU5nLEsrn8380geztPrpVP4bBGAdiVEAQOPme7dm/vhteXDpPblg5vszMXR2BuVq07NgG3joNNSR4+/MiaUbUlW9pgcBsA2IUQDABlFlvndbPnzoVdkz+hU5Z+pfZag9m6qq4ivk4eQqilbKci2rvXtz+Pgfp6zEXwDqI0YBABvOweX3Zn7t09k9+uU5dfzFGe7szKBca3oWbHpFUaTdHsv84kczv/zhrKzd0fQkALYhMQoA2JCWBwdyz8If5cGl/5PzZr43e8a+PL3BQtOzYNMqinYGg/kcmntLllZviROHADRFjAIANrTV8nA+cfSHMzl/Qc6b+bcZ75ydoih88x48Qg9FqIUsrX4qR+ff1fQcABCjAICTpch6nrSY792ajx95TXYMPy2njr8kk8PnpXR1D76oomgnSU4sfiCLKx/LWv+BhhcBwENaTQ8AALaG8c6ZuXTnT6/rM3rliTy4/J7cfOQ/5t6F/5FOezwPRTDgC7Va3az1DuTA0Tfn2MKfC1EAbChiFABw0uwdf0au3f+OnDr+4nRak+v2nH61lNuP/0r+5v6X5MjKB1KlTKtw4JvtrkhRtNMfzOXw8bfnwNE3Za13f9OjAOAf8akNADhpBtVairRz3sx3Z//Y83Pv4tvywNKfr9vz1sq53DL305keuiSnjL0ou8aucXWPbanV6qY/mM/xheuzvHpr+oPjTU8CgC9KjAIATrIqg3I1o53Tcu70d+f0iW/MJ4/+eJb6d6/L08qql2OrH83c2s3Zt/qVOXf6/02RVirfFMY20Wp1s7jyqRybf7cIBcCm4JoeALBuirQy2jk1T9375pwz9Z0Z7exft2dVVT8Hlt6V/3vga/O5xT/JoFpxdY8tqyhaSYqs9R/IgSNvyqG5PxSiANg0fEIDANZVVQ1SVYOcMfnS7B19du5femfumf/9VBmsz/NS5c4Tv5FDy9dn39hX5pSxr02Kh3bAVtBuj2Zl9Z4cX3xfVtbuTFmtNj0JAB4VJ6MAgFoMyrV0WhM5Y+Kbcs3+t2XnyNXr+ryF3u357PFfzseO/EBWB4fiW/fYKubm35sHjv16llZvEaIA2JScjAIAaleklUt2/lgOLf91Prfwxzmx9ul1e9bxtY/ngw++IvvGXpCzJl+e4fbulFU/8U4pNomiaKcs17LauztHTvxpBuVC05MA4HERowCARgzKlewauTqzw0/JoeXrc9eJ38pqeWTdnvfA0rszt3pTdo9emzMm/mW67YkMfPMeG1qRbnciJxZvyonF/5vV3n1JyqZHAcDj5poeANCYsuqlSCt7Rp+dL9v/Rzlt/BuzntfpVgYP5HMLb81HDn1XDi/f4AXnbGhltZwDh38zh+b+IKu9z0WIAmCr8AkMANgQBuVKzp35zuwd+4rcvfD7ObL8N6nW6Q/fK4OD+cTRH87M8OU5e/LbMzV0QaoMUlX+sE+ziqKTwWA+S6ufyrH5P1+3F/0DQJPEKABgwxiUKxnvnpWLZ1+bY2M35a75382JtU+t2/PmVv82H++9JrPDT8lZE6/I+NCZGZQr6/Y8+GKKopV2ezTH5q/PwvJH0usfbHoSAKwbMQoA2FCqapAqyfTQJXny7jfm/oV35vYTv5xBtT6RqF8u5NDy9Tm68qGcNfUtOW3i61OWvXV5FvzTivT6h3P/kbeIUABsC94ZBQBsWINyJadMvDBP3/s7OXX8JekU4+v3rGoptx9/U2584JU5svLBJEVaRXfdnsd2V6TV6qY/OJZjC3+e+4/8khAFwLbhZBQAsKENypV0ivGcO/1d2T/2/Hxu8S15cOk96/a85cGB3DL3U5nsnp8zJl6enaNPzaBcXbfnsf0URTtV1c+RE/8zS6u3ZjA43vQkAKiVk1EAwIZXpUpZ9TLaOTUXzPyHXLHr5zLS3rtuzyurXo6vfTKfOPpDuW3uFz6/Ah6/Iitrd+Tewz+b+aUbhSgAtiUxCgDYVKpqkKmhi/LUvb+Rc6b+dUY7p6zfszLI/YvvyPsf+Ibct/iOlNVa2q3hdXseW1NRtNJqdbLWuy8H567Lg8d+J2W51PQsAGiMa3oAwKZTVr0kRU6feGn2jD47B5bembvnf2/dnjeoVnLHiV/LgaV357TxF+eU8RelrPpxWoovpdUaSq93OEcX3pXVtc+lXKcX8QPAZuJkFACwSVUpq366ramcOfnyXL3vrZkZuixF2uv2vOX+vfnM8V/MzUdek145lyrlOj2LraHMicUbcv/RX8zy6meEKAB4mBgFAGx6VVWmU4zl8t2vz4WzP5DpoUvW9XnHVj+SGx58ee448easDY4+fHWvWNdnsjkUxf/f3p0HXXbXdR7/nPusvSedpLMgIRAERM2MQ9hKwA0HmWGccrRUVMxUCTKMguCCypSlo+CgYqkzCigoAzqggCICDogSA4QAWTtkJ0uHTm/Pvj/3ucs580cy1CwxkKTv7z7L6/VnV3V/v9V/nXrf3++c+2Po+sbtOT775swtfyRN0x/yVgCwubimBwBsC03q9OuNnLPreTk48YzMtD+duxbfkl4zuHfzHF/9cGbWr8y5u5+fx+390Yy0xh64vsdONDq6J6vrt2R++e/S7U2niQgFAA/GySgAYFtpmn5a1VjO3fUdee5jPpLzd//rtKrxgc3r1PM5uvK+XDvziix0bkrT9OKU1M5TN+1Mzb8/p+bflU7vpBAFAA/BySgAYFtqUqfXX82Tz3xNzt39/Bxf/VCm1j8xsHnrvftyeOZnc3DyGXnc3h/OgYmvT9100jTeK7VdtVpj6fVXstq+MYsrl6duNoa9EgBsCWIUALCt9et29o8/OfvGvjbn7/6u3Ln45qz2jgxs3lz781nauDlnTjwtFx94RSZHz06/Fim2lypjY3uzsPzpLK5+Mr3+wrAXAoAtxTU9AGDb+9+nk/aPf32edcGf5Qn7fzyj1Z6Bzes1q5lufzLXTL00x1c/4urettKk15/LfVP/LbNLfyNEAcAj4GQUALCDNOl0F3Lhvu/PObuek+OrH86x1b9O3XQGMq3XrOaOhd/NsdEP5qJ9L8nZu56TpPaS8y2o1RpPpzuV5fWrs7z22WGvAwBbmhgFAOw4/bqdidZZefz+f5/zdr8g9yz9SWbaVw5s3mrvnty68MbsWXl8nnjgP+bAxNelXw8mgHF6VVUrrdZ4Zhc/ktX24fTr1WGvBABbnmt6AMCO1KRJ09SZHDk3l5z9+nzDwV/N5MihDOo6Xd10sty9PTfMvCZ3Lb79gdNYzUBmcTpUSeq0O/fmyMn/nKW1zwhRAHCaOBkFAOx43f5qzt71rJwxcUlOrH009628Pxv9mYHMalLn6Mp7c3LtY7lw7w/mgj0vykhr0kvON4mqqtJqTWStfXuW1j6X9Y3bh70SAGw7YhQAQJJ+3UmV0Txmz3fn0OS35b7Vv8rRlb8Y2LxuvZi7l96e+1Y/kMfvuyzn7n5+6qY7sHl8ZVU1krpez9TCn6fdOZJmQO8SA4CdzjU9AID/Q9PUGW3tyRMO/FiecegdOXPiaamqwfx+16Sfjf5Ublv4rdw8//p064U06ceX90qr0jTdrK4fztHp38j6xh1CFAAMkJNRAAAPoq47mRw9P9941uszvf6pnFj9SBY6hwc2b2b9U5ld/0zO3/PCXLj3xdk1dl56/Xa8V2pwqmokVdXKytoNWVy7Mt3eqWGvBAA7ghgFAPBPaJpekuScyefkrMlnZmr98ty58AepM5jrdE36Ob764Zxa+0S+Zs+/zYX7fiRV1UrT1AOZt5O1WuNpd45mdukD6fVm08T/MQCU4poeAMBX0KROlZGcv/u78pwL/ibn7X5hRlt7Bjav36zl3pX35Lrpn8hS5/bUTSdV5bHt9KjSr1czt/TRnJz7o3R700IUABTmZBQAwFepbnpJqjz5zNfk3Pa359T6x3Ny7e8GNm+1dyQ3zLwmByefmcftfXHOmLwk/f56Glf3HrZWayz9/nqW16/O8tpV6derw14JAHYsMQoA4GFpUtedHBh/avaNPzmHdn1Hbl94Uzb60wObONf+XBY2rsvZk8/JE/f/ZMZG9vry3sMwOronS6vXZH75f4pQALAJOO8NAPAINGlSpZUzJr4xz33MB3PRvssyMXLOwObVTTdT65fn6ukfy8m1j6bfrKWqRgY2b+u7/4uE3f5sjs/8UWYW3y9EAcAm4WQUAMCj0DR1NrpzuWj/D+ecXc/N1Po/5ujy+1JnYyDzuvVCbl/4newd+1Aeu/d7c96eF6Rfb6Rp+gOZtxW1WuPpdKezvHZVVtrX+b8BgE3GySgAgNOgX3cyOXJ+Ltz7g7n00Ftzxvg/G+i8le6duW3+Tbl26iey3j2WVmt8oPO2hiqjo3uysPyJnJh7a5bXrxaiAGATEqMAAE6b+18sPjFyKJee95Y85Yyfz96xiwc4rZ+lzq25dvoVuXvxD9Otl3bkV/eqqpUmdTa69+bek2/IwurlaZrOsNcCAP4JrukBAJx2TTa6czlvz3fkzMmnZaZ9Ze5d+rN06tmBTKvTzdGVv8zU+hW5YPeLcuG+H0pV3X9aa3urMjIymbX2HVla+0zWN+4Y9kIAwFdh5/10BgBQSL/uZLTanfN2fWeefuhtuWDPvxnovI3+TI4svzOfPfXizKxflarazr87VkmanJp/d6YW/kyIAoAtZDs/oQAAbBqtajxPOfNncu6u5+fe5XdlfuNwmvRO+5wmTTb6s7lp7pdz9q5vzhP2vTQTI2fn/t8gm9M+r7SqaqVft9PufDEzi3817HUAgEdAjAIAKKTbX8n+8SfnqQd/JfMb1+RLy+/NcvfWgc2bWb8y8+1rc2jXt+cJ+1+a8dED6fXXBzZvkKpqJK3WeJZWr87y2lXp9E4OeyUA4BESowAACqqbXqpUOTjx9Jw18YwcW/tw7l5820BOSSVJv2nnxNrf5tT6x3PRvh/NY/Z8z0DmDFJVtdLtTWd68X3p9maS1MNeCQB4FLwzCgBgSJo0eeze78mzz3tPztv9goxWewY2q266uXvpj3PD7E9npfvF1E0nVTUysHmnQ1W10u8vZXH1Uzk++wfp9qYiRAHA1udkFADAEPXrTkZbe/KkM16dc3d9Z06ufTSn1v9+YPOWO3fk+pnX5ODkM/KEfS/NvomvTa+/ls30PqlWayxNU2dx5Yosr1+Tfr087JUAgNNIjAIAGLKmuf+0z/7xp+TAxFNzzq5vye0Lb0q3XhzYzLn25zPX/nzO3/2CPGH/yzNSTabZBKeOWq2xrKx/IXPLH05db833WwEAD801PQCATaRp6pw1+fQ894K/zuP2/kgmRg4NdN6JtY/lmumXZ7p9RXr1clqt8YHOezBVVSVJOr1TmV54b2YW3ydEAcA25mQUAMAmUze91P1eLtr/kpyz63mZ2fhMjiy9K4N6X9JGfzq3zv9G9o49MY/b+0M5tOfb0q/Xv3xia5BarYn0eguZX/n7rG3ckqbpDHwmADBcTkYBAGxSddPNrtEL8tg935dLz3lr9o5dPNB5K907c/P8r+b6qVdnozc78Becj4xMZmH5H3Js9ney2r5BiAKAHUKMAgDYAnaPfU2efcH/yJMO/HT2jj1xoLMWOodzzfTLcu/yn2ajP5OR1sRp+7eraiRN+ml37s5907+XhdXL0zT90/bvAwCbn2t6AABbQNPUaXdmcv6ef5mDk5dmoXND7lx4S3rNYL4012/auXf53Tm59vFcsOdFuWjfS5Lq0f2bIyOTWd84koWVj6fd+VIGde0QANjcnIwCANhC6qaXsdb+nDP5vDzz3P+eQ7u+NY+6Ej2Ejf507ll6R646+eIstm96xLOqaiRT83+Rk3NvS7tzJEIUAOxcTkYBAGxRrWoyl5zzhpxa+WSOrX4gcxtXJ2kGMqvdP5XrZl6V8dbBh/1367qdo9NvTNP0BrAZALDViFEAAFtWk43ufA5OflP2jz8lS91bc9fiH2atd+/AJnbquYf9d/r10gA2AQC2Ktf0AAC2uLrppVWN5YzxS/L0c9+Wi/ZdllY1Puy1AAAelBgFALCN1HUnjz9wWZ52zltz/u4XZqTaNeyVAAD+L2IUAMA20+uvZdfoeXnigZ/IJWe9MYd2ffuwVwIA+DIxCgBgG2qa+79Wt3fs4jz14OvydWe+LmOt/UPeCgBAjAIA2Pb6dTuHdn9rnnXue3LRvssyMXL2sFcCAHYwX9MDANgB6rqTpMqF+34g5+x6Xqbbn8qRpXcmaYa9GgCwwzgZBQCwYzRpmjqTI+fmcXtfnG86+3eze/SxSaphLwYA7CBiFADADlQ33ewff3Keff6785Qzfi57xy4e9koAwA7hmh4AwA5VN710eos5tPtbc8bEP89i56Z8cfH306uXhr0aALCNORkFALDDNU2dsdb+nD35zbn0nD/MwYmnp6r8ZgkADIYYBQDAA5qMtw7kX5z7u/nGg7+egxPPGPZCAMA25CcvAAC+rEmdje58zpj4huwbuzgrvXvyxYXfz1rvyLBXAwC2CSejAAD4/zRNnVY1kf1jX5dLD70lX7PnezNa7Ykv7wEAj5YYBQDAQ2jSNP086eCr8k3n/Nec5eoeAPAoiVEAAHxF3d5y9oxdmAPjlwx7FQBgixOjAAD4qjRpkjTDXgMA2OLEKAAAAACKEaMAAAAAKEaMAgAAAKAYMQoAAACAYsQoAAAAAIoRowAAAAAoRowCAAAAoBgxCgAAAIBixCgAAAAAihGjAAAAAChGjAIAAACgGDEKAAAAgGLEKAAAAACKEaMAAAAAKEaMAgAAAKAYMQoAAACAYsQoAAAAAIoRowAAAAAoRowCAAAAoBgxCgAAAIBixCgAAAAAihGjAAAAAChGjAIAAACgGDEKAAAAgGLEKAAAAACKEaMAAAAAKEaMAgAAAKAYMQoAAACAYsQoAAAAAIoRowAAAAAoRowCAAAAoBgxCgAAAIBixCgAAAAAihGjAAAAAChGjAIAAACgGDEKAAAAgGLEKAAAAACKEaMAAAAAKEaMAgAAAKAYMQoAAACAYsQoAAAAAIoRowAAAAAoRowCAAAAoBgxCgAAAIBixCgAAAAAihGjAAAAAChGjAIAAACgGDEKAAAAgGLEKAAAAACKEaMAAAAAKEaMAgAAAKAYMQoAAACAYsQoAAAAAIoRowAAAAAoRowCAAAAoBgxCgAAAIBixCgAAAAAihGjAAAAAChGjAIAAACgGDEKAAAAgGLEKAAAAACKEaMAAAAAKEaMAgAAAKAYMQoAAACAYsQoAAAAAIoRowAAAAAoRowCAE6jatgLAACwyYlRAMBp0W2WM79+fZIqVeURAwCAB+dJEQA4LTr92dw4+wu5ff63st47kbGRPcNeCQCATUiMAgBOm37TzlT7H3PN1Mtyz+KfJmmGvRIAAJuMGAUAnHZN6tyz/Ce5fubVmW1/Lk3TS1WNDHstAAA2ATEKABiYle5duWX+13LT3C9nYeMLmRg7M15yDgCws40OewEAYPtb6BzOwuzhnLXyzDzlzNemVU0MeyUAAIbEySgAoJjZjc/l6qmX5vjqR9Krl9Oqxoa9EgAAhYlRAEBRnXo+dy29JTfO/mJOrv1dxsfOSOXqHgDAjiFGAQBDsdo7ktsXfjtXHvt32ejPDXsdAAAKEaMAgKFq96fy+anLcs/Sn6TdP5GR1kS85BwAYPvyAnMAYOia1Llv9a8y3f5kzt31/Fy0/7L7/7zpD3kzAABONyejAIBNY6M/ky+t/Hk+ffy7s9K5c9jrAAAwAGIUALDp1OnmuplX5tb5N2a5e1ta1XiqymMLAMB24JoeALBpzbQ/nYXO9Tlz/NJcfODlmRg9O3XdGfZaAAA8Cn5iBAA2tV69mun2FfnsqR/KqdW/TxPvkQIA2MrEKABgy7ht4Tdz48zPZ6Z9ZZKkVTnkDQCw1YhRAMCWstS97ctRaqlze8ZG9w17JQAAHgYxCgDYcpqmn8Xuzbl+5qdy2+yb0m/Whr0SAABfJTEKANjSjq99KNdNvyrHVj+YfrOeVjU27JUAAHgIYhQAsOW1+ydz99LbcsPMazK1/slMjJ2ZpBr2WgAAPAgxCgDYNtZ69+XW+Tfks8dfknb/RJImohQAwOYiRgEA285K7+5cN/2q3L309rT7x13dAwDYRMQoAGBb6jdrObb6wRyeeW3uXX53xkb2pKo8+gAADJsnMgBgW+vU8zmy/M5ccexfZXHjpjSp4+oeAMDwiFEAwI7Qb9ZzePa1uW3+N7LcvTVVNeKkFADAEIwOewEAgJJm2ldmfuP6nDX5rHztgVdmpDWZpukPey0AgB3Dz4EAwI7Tb9Yytf6JXHnye3Jq7R9SN91Uru4BABQhRgEAO9rtC2/KF+Zel+n2p9M0dVqVg+MAAIPkaQsA2PGWOrdmufvF7Bt9Yp505s9k79hF6dcbw14LAGBbcjIKACBJ0/Sy1L0tW2KTcQAACkZJREFU10y9LHctvi29evmBq3uu7wEAnE5iFADA/+Poyntzw+zP5ujqX6Zfr6bVGh/2SgAA24YYBQDwINZ7x3LP0jty3cwrM7v+uYyN7h32SgAA24IYBQDwT2rS7p/KTXO/lOunfjrrveNJksojFADAI+ZJCgDgqzC/cV0Oz/5c7lx8c9r9k67uAQA8QmIUAMBXqVsv5sTa3+b6mZ/KsZW/fuDqnhecAwA8HGIUAMDD1K2Xc+fim3Plse/LUufmNOmnqkaGvRYAwJYgRgEAPEIb9Uy+MPefcsvcG7LcuS2taixOSgEAPLTRYS8AALCV1U03cxufz0LncM7b9Z25+MArUqVKk2bYqwEAbEpORgEAnAZ1s5Hjax/Op068KFPrV6RuNlzdAwB4EE5GAQCcVk1uW/jN7Bt7Ui7c9/05OPHsVFUrTdMf9mIAAJuCk1EAAAOw3L0jt8z9er4w+4vZ6M+k8tgFAJBEjAIAGJgmdRY6N+Zzp16SL638ebr14gNX97zkHADYucQoAIACjiy/K4dnfy73rfxl6qaTVmt82CsBAAyFGAUAUMh673juXnp7rp1+RRY2bkyrGhv2SgAAxYlRAACFtfsnc3jmZ3Pr/H/Jeu++VNVIqspjGQCwM/iaHgDAkEyt/2MWNg7nrMln58K9L86usfPSrzeGvRYAwED5CQ4AYIg69XxOrP1trp1+eU6sfiwjrYlhrwQAMFBiFADAJtBr1nL7wpty9akfz2LnpiR54Mt7AADbixgFALCJrPbuyc1zv5Kb5n4pK927fHUPANh2xCgAgE2m37Qzv3F9rp/+qdyz+A4vNwcAthVPNgAAm1STfr608p5ceeJ7M71+Reqmm1Y1Nuy1AAAeFTEKAGCT6zfruX3ht3PDzKsz277qgXdJVcNeCwDgERGjAAC2gCZ1Vnv35qa5X8ktc69Pr15J0gx7LQCAh02MAgDYYmbaV+aqUz+QoyvvT7defODqnpNSAMDWIEYBAGxRR5bfmetnXp1jqx9M0/TTqkaHvRIAwFckRgEAbGEb/encufjmXD/zyix374yrewDAZidGAQBsA6u9e3Pd9E/mi4u/n7Xe0bSq8VSVRz0AYPNxlhsAYBs5ufaxzLavyqFd35IL9/5IJkbPTL/uDHstAIAv83MZAMA2062Xcmz1Q7l66scytfbJuLoHAGwmYhQAwDbVa1Zyy/zrc+PsL2axc2Na1ViqamTYawEAO5wYBQCwzS12bsrNc7+WG2d/IWvdo2m1xoe9EgCwg4lRAAA7QL9Zz/zG9bl2+j/kS8t/kabpDXslAGCHEqMAAHaQJnXuWfrjXD390kytX56kcVIKAChKjAIA2IE2+jO5Y/H3cs3Uj2e+fU2qykeWAYAyxCgAgB2qaXpZ75/IjbOvyx0Lv5NevZL7v7xXDXs1AGAbE6MAAMjJtY/ls6d+OEdX3pdevZKR1mREKQBgEMQoAACSJE36ObL8p7lm+mU5uvzeJE0qj4sAwGnm6QIAgP9Dk269lLuW/iiHZ1+b1d69aZpeKqekAIDTRIwCAOBBLXVuybXTr8gdi7+Xtd6xjLq6BwCcBj6bAgDAQ5pavzyz7aty/u4XZqTaNex1AIAtTowCAOAr6jft3Lf6gWGvAQBsA67pAQAAAFCMGAUAAABAMWIUAAAAAMWIUQAAAAAUI0YBAAAAUIwYBQAAAEAxYhQAAAAAxYhRAAAAABQjRgEAAABQjBgFAAAAQDFiFAAAAADFiFEAAAAAFCNGAQAAAFCMGAUAAABAMWIUAAAAAMWIUQAAAAAUI0YBAAAAUIwYBQAAAEAxYhQAAAAAxYhRAAAAABQjRgEAAABQjBgFAAAAQDFiFAAAAADFiFEAAAAAFCNGAQAAAFCMGAUAAABAMWIUAAAAAMWIUQAAAAAUI0YBAAAAUIwYBQAAAEAxYhQAAAAAxYhRAAAAABQjRgEAAABQjBgFAAAAQDFiFAAAAADFiFEAAAAAFCNGAQAAAFCMGAUAAABAMWIUAAAAAMWIUQAAAAAUI0YBAAAAUIwYBQAAAEAxYhQAAAAAxYhRAAAAABQjRgEAAABQjBgFAAAAQDFiFAAAAADFiFEAAAAAFCNGAQAAAFCMGAUAAABAMWIUAAAAAMWIUQAAAAAUI0YBAAAAUIwYBQAAAEAxYhQAAAAAxYhRAAAAABQjRgEAAABQjBgFAAAAQDFiFAAAAADFiFEAAAAAFCNGAQAAAFCMGAUAAABAMWIUAAAAAMWIUQAAAAAUI0YBAAAAUIwYBQAAAEAxYhQAAAAAxYhRAAAAABQjRgEAAABQjBgFAAAAQDFiFAAAAADFiFEAAAAAFCNGAQAAAFCMGAUAAABAMWIUAAAAAMWIUQAAAAAUI0YBAAAAUIwYBQAAAEAxYhQAAAAAxYhRAAAAABQjRgEAAABQjBgFAAAAQDFiFAAAAADFiFEAAAAAFCNGAQAAAFCMGAUAAABAMWIUAAAAAMWIUQAAAAAUI0YBAAAAUIwYBQAAAEAxYhQAAAAAxYhRAAAAABQjRgEAAABQjBgFAAAAQDFiFAAAAADFiFEAAAAAFCNGAQAAAFCMGAUAAABAMWIUAAAAAMWIUQAAAAAUI0YBAAAAUIwYBQAAAEAxYhQAAAAAxYhRAAAAABQjRgEAAABQjBgFAAAAQDFiFAAAAADFiFEAAAAAFCNGAQAAAFCMGAUAAABAMWIUAAAAAMWIUQAAAAAUI0YBAAAAUIwYBQAAAEAxYhQAAAAAxYhRAAAAABQjRgEAAABQjBgFAAAAQDFiFAAAAADFiFEAAAAAFCNGAQAAAFCMGAUAAABAMWIUAAAAAMWIUQAAAAAUI0YBAAAAUIwYBQAAAEAxYhQAAAAAxYhRAAAAABQjRgEAAABQjBgFAAAAQDFiFAAAAADFiFEAAAAAFCNGAQAAAFCMGAUAAABAMWIUAAAAAMWIUQAAAAAUI0YBAAAAUIwYBQAAAEAxYhQAAAAAxYhRAAAAABQjRgEAAABQjBgFAAAAQDFiFAAAAADFiFEAAAAAFCNGAQAAAFCMGAUAAABAMWIUAAAAAMWIUQAAAAAUI0YBAAAAUIwYBQAAAEAxYhQAAAAAxYhRAAAAABQjRgEAAABQjBgFAAAAQDFiFAAAAADFiFEAAAAAFCNGAQAAAFCMGAUAAABAMWIUAAAAAMWIUQAAAAAUI0YBAAAAUIwYBQAAAEAxYhQAAAAAxYhRAAAAABQjRgEAAABQjBgFAAAAQDFiFAAAAADFiFEAAAAAFCNGAQAAAFCMGAUAAABAMWIUAAAAAMWIUQAAAAAUI0YBAAAAUIwYBQAAAEAxYhQAAAAAxYhRAAAAABQjRgEAAABQjBgFAAAAQDFiFAAAAADFiFEAAAAAFCNGAQAAAFCMGAUAAABAMWIUAAAAAMWIUQAAAAAUI0YBAAAAUIwYBQAAAEAxYhQAAAAAxYhRAAAAABQjRgEAAABQjBgFAAAAQDFiFAAAAAAD1zT5lkSMAgAAAKCAqsoVSfK/AGMXvXFmGf1hAAAAAElFTkSuQmCC;" vertex="1" parent="1">
                    <mxGeometry x="50" y="300" width="100.23" height="70" as="geometry"/>
                </mxCell>
                <mxCell id="18" value="Save State to S3" style="text;html=1;align=center;verticalAlign=middle;resizable=0;points=[];autosize=1;strokeColor=none;fillColor=none;fontColor=#FFFFFF;" vertex="1" parent="1">
                    <mxGeometry x="90" y="160" width="110" height="30" as="geometry"/>
                </mxCell>
                <mxCell id="19" value="Internet gateway" style="sketch=0;outlineConnect=0;fontColor=#FFFFFF;gradientColor=none;fillColor=#4D27AA;strokeColor=none;dashed=0;verticalLabelPosition=top;verticalAlign=bottom;align=left;html=1;fontSize=12;fontStyle=0;aspect=fixed;pointerEvents=1;shape=mxgraph.aws4.internet_gateway;labelPosition=right;" vertex="1" parent="1">
                    <mxGeometry x="300" y="60" width="50" height="50" as="geometry"/>
                </mxCell>
            </root>
        </mxGraphModel>
    </diagram>
</mxfile>